<svg xmlns="http://www.w3.org/2000/svg" xmlns:xlink="http://www.w3.org/1999/xlink" viewBox="0,0,256,256" width="24px" height="24px" fill-rule="nonzero"><g fill="#ffffff" fill-rule="nonzero" stroke="none" stroke-width="1" stroke-linecap="butt" stroke-linejoin="miter" stroke-miterlimit="10" stroke-dasharray="" stroke-dashoffset="0" font-family="none" font-weight="none" font-size="none" text-anchor="none" style="mix-blend-mode: normal"><g transform="scale(8,8)"><path d="M12.65625,4.90625l-0.78125,0.09375c0,0 -3.50391,0.38281 -6.0625,2.4375h-0.03125l-0.03125,0.03125c-0.57422,0.52734 -0.82422,1.17578 -1.21875,2.125c-0.39453,0.94922 -0.81641,2.16016 -1.1875,3.5c-0.74219,2.68359 -1.34375,5.93359 -1.34375,8.90625v0.25l0.125,0.25c0.92578,1.625 2.57031,2.66016 4.09375,3.375c1.52344,0.71484 2.83984,1.09375 3.75,1.125l0.59375,0.03125l0.3125,-0.53125l1.09375,-1.9375c1.16016,0.26172 2.49609,0.4375 4.03125,0.4375c1.53516,0 2.87109,-0.17578 4.03125,-0.4375l1.09375,1.9375l0.3125,0.53125l0.59375,-0.03125c0.91016,-0.03125 2.22656,-0.41016 3.75,-1.125c1.52344,-0.71484 3.16797,-1.75 4.09375,-3.375l0.125,-0.25v-0.25c0,-2.97266 -0.60156,-6.22266 -1.34375,-8.90625c-0.37109,-1.33984 -0.79297,-2.55078 -1.1875,-3.5c-0.39453,-0.94922 -0.64453,-1.59766 -1.21875,-2.125l-0.03125,-0.03125h-0.03125c-2.55859,-2.05469 -6.0625,-2.4375 -6.0625,-2.4375l-0.78125,-0.09375l-0.28125,0.71875c0,0 -0.28906,0.73047 -0.46875,1.5625c-1.13281,-0.15234 -2.05859,-0.1875 -2.59375,-0.1875c-0.53516,0 -1.46094,0.03516 -2.59375,0.1875c-0.17969,-0.83203 -0.46875,-1.5625 -0.46875,-1.5625zM11.28125,7.1875c0.04297,0.14063 0.08594,0.26172 0.125,0.375c-1.29297,0.32031 -2.67187,0.80859 -3.9375,1.59375l1.0625,1.6875c2.59375,-1.60937 6.32031,-1.84375 7.46875,-1.84375c1.14844,0 4.875,0.23438 7.46875,1.84375l1.0625,-1.6875c-1.26562,-0.78516 -2.64453,-1.27344 -3.9375,-1.59375c0.03906,-0.11328 0.08203,-0.23437 0.125,-0.375c0.93359,0.1875 2.71484,0.61719 4.1875,1.78125c-0.00781,0.00391 0.375,0.58203 0.71875,1.40625c0.35156,0.84766 0.74219,1.97656 1.09375,3.25c0.67578,2.44141 1.20703,5.41406 1.25,8.03125c-0.62891,0.96094 -1.79687,1.82813 -3.03125,2.40625c-1.07812,0.50391 -1.92969,0.6875 -2.4375,0.78125l-0.5,-0.84375c0.29688,-0.10937 0.58984,-0.23047 0.84375,-0.34375c1.53906,-0.67578 2.375,-1.40625 2.375,-1.40625l-1.3125,-1.5c0,0 -0.5625,0.51563 -1.875,1.09375c-1.3125,0.57813 -3.31641,1.15625 -6.03125,1.15625c-2.71484,0 -4.71875,-0.57812 -6.03125,-1.15625c-1.3125,-0.57812 -1.875,-1.09375 -1.875,-1.09375l-1.3125,1.5c0,0 0.83594,0.73047 2.375,1.40625c0.25391,0.11328 0.54688,0.23438 0.84375,0.34375l-0.5,0.84375c-0.50781,-0.09375 -1.35937,-0.27734 -2.4375,-0.78125c-1.23437,-0.57812 -2.40234,-1.44531 -3.03125,-2.40625c0.04297,-2.61719 0.57422,-5.58984 1.25,-8.03125c0.35156,-1.27344 0.74219,-2.40234 1.09375,-3.25c0.34375,-0.82422 0.72656,-1.40234 0.71875,-1.40625c1.47266,-1.16406 3.25391,-1.59375 4.1875,-1.78125zM12.5,14c-0.77344,0 -1.45703,0.44141 -1.875,1c-0.41797,0.55859 -0.625,1.24609 -0.625,2c0,0.75391 0.20703,1.44141 0.625,2c0.41797,0.55859 1.10156,1 1.875,1c0.77344,0 1.45703,-0.44141 1.875,-1c0.41797,-0.55859 0.625,-1.24609 0.625,-2c0,-0.75391 -0.20703,-1.44141 -0.625,-2c-0.41797,-0.55859 -1.10156,-1 -1.875,-1zM19.5,14c-0.77344,0 -1.45703,0.44141 -1.875,1c-0.41797,0.55859 -0.625,1.24609 -0.625,2c0,0.75391 0.20703,1.44141 0.625,2c0.41797,0.55859 1.10156,1 1.875,1c0.77344,0 1.45703,-0.44141 1.875,-1c0.41797,-0.55859 0.625,-1.24609 0.625,-2c0,-0.75391 -0.20703,-1.44141 -0.625,-2c-0.41797,-0.55859 -1.10156,-1 -1.875,-1zM12.5,16c0.05469,0 0.125,0.01953 0.25,0.1875c0.125,0.16797 0.25,0.46094 0.25,0.8125c0,0.35156 -0.125,0.64453 -0.25,0.8125c-0.125,0.16797 -0.19531,0.1875 -0.25,0.1875c-0.05469,0 -0.125,-0.01953 -0.25,-0.1875c-0.125,-0.16797 -0.25,-0.46094 -0.25,-0.8125c0,-0.35156 0.125,-0.64453 0.25,-0.8125c0.125,-0.16797 0.19531,-0.1875 0.25,-0.1875zM19.5,16c0.05469,0 0.125,0.01953 0.25,0.1875c0.125,0.16797 0.25,0.46094 0.25,0.8125c0,0.35156 -0.125,0.64453 -0.25,0.8125c-0.125,0.16797 -0.19531,0.1875 -0.25,0.1875c-0.05469,0 -0.125,-0.01953 -0.25,-0.1875c-0.125,-0.16797 -0.25,-0.46094 -0.25,-0.8125c0,-0.35156 0.125,-0.64453 0.25,-0.8125c0.125,-0.16797 0.19531,-0.1875 0.25,-0.1875z"></path></g></g></svg>